<svg xmlns="http://www.w3.org/2000/svg" width="181.222" height="57.466" viewBox="0 0 181.222 57.466"><defs><style>.a{fill:#fff;}</style></defs><rect width="181.222" height="57.466" rx="7.2"/><path class="a" d="M35.67,22.12h-2.9V8.976c0-1.271-.036-2.621-.107-4.014h2.546L35.376,6.9h.054a4.936,4.936,0,0,1,4.4-2.183,5,5,0,0,1,3.85,1.706,6.48,6.48,0,0,1,1.54,4.49,6.682,6.682,0,0,1-1.8,4.915,5.45,5.45,0,0,1-4,1.605,4.094,4.094,0,0,1-3.7-1.73H35.67v6.42ZM38.888,6.868a3.146,3.146,0,0,0-1.945.665,3.064,3.064,0,0,0-1.138,1.744,3.324,3.324,0,0,0-.135.826v2.033a3.161,3.161,0,0,0,.87,2.246,3.006,3.006,0,0,0,2.268.916,3.05,3.05,0,0,0,2.547-1.179,4.968,4.968,0,0,0,.913-3.111,4.805,4.805,0,0,0-.86-2.935A3.046,3.046,0,0,0,38.888,6.868ZM20.677,22.12h-2.9V8.976c0-1.291-.036-2.641-.107-4.014h2.547L20.382,6.9h.055a4.936,4.936,0,0,1,4.4-2.183,4.99,4.99,0,0,1,3.848,1.706,6.465,6.465,0,0,1,1.543,4.49,6.686,6.686,0,0,1-1.8,4.915,5.455,5.455,0,0,1-4,1.605,4.1,4.1,0,0,1-3.7-1.73h-.054v6.42ZM23.9,6.868a3.136,3.136,0,0,0-1.944.665,3.07,3.07,0,0,0-1.14,1.744,3.364,3.364,0,0,0-.134.826v2.033a3.151,3.151,0,0,0,.872,2.246,3,3,0,0,0,2.266.916,3.05,3.05,0,0,0,2.547-1.179,4.97,4.97,0,0,0,.912-3.111,4.8,4.8,0,0,0-.858-2.935A3.047,3.047,0,0,0,23.9,6.868Zm55.57,10.56a6.056,6.056,0,0,1-4.571-1.78,6.257,6.257,0,0,1-1.7-4.489A6.4,6.4,0,0,1,74.948,6.52,6.318,6.318,0,0,1,79.68,4.714,6.19,6.19,0,0,1,84.294,6.5a6.188,6.188,0,0,1,1.665,4.462,6.455,6.455,0,0,1-1.717,4.615A6.37,6.37,0,0,1,79.466,17.428Zm.111-10.734a2.952,2.952,0,0,0-2.655,1.458,5.333,5.333,0,0,0-.778,2.944,5.218,5.218,0,0,0,.778,2.891,2.972,2.972,0,0,0,2.629,1.458,2.94,2.94,0,0,0,2.6-1.483,5.242,5.242,0,0,0,.8-2.917,5.226,5.226,0,0,0-.778-2.893A2.9,2.9,0,0,0,79.577,6.694ZM55.451,17.4a9.148,9.148,0,0,1-4.684-1.053l.671-2.258a8.385,8.385,0,0,0,4.187,1.08,4.171,4.171,0,0,0,2.549-.691,2.209,2.209,0,0,0,.91-1.847,2.29,2.29,0,0,0-.751-1.734,7.151,7.151,0,0,0-2.494-1.306c-3.15-1.1-4.746-2.73-4.746-4.848a4.2,4.2,0,0,1,1.665-3.416A6.89,6.89,0,0,1,57.181,0a9.341,9.341,0,0,1,4.1.8L60.56,3.011A7.552,7.552,0,0,0,57.1,2.233a3.679,3.679,0,0,0-2.385.7,1.957,1.957,0,0,0-.724,1.53,2.024,2.024,0,0,0,.83,1.656,9.636,9.636,0,0,0,2.629,1.3,9.036,9.036,0,0,1,3.432,2.056,4.137,4.137,0,0,1,1.1,2.93,4.393,4.393,0,0,1-1.606,3.511A7.484,7.484,0,0,1,55.451,17.4Zm13.717,0a3.622,3.622,0,0,1-2.683-.978,4.606,4.606,0,0,1-.966-3.286V6.993h-1.9V4.961h1.9V2.729l2.845-.8V4.961h3.192V7H68.364v5.919c0,1.5.568,2.257,1.69,2.257a5.474,5.474,0,0,0,1.286-.126l.08,2.057A7.009,7.009,0,0,1,69.168,17.4Zm34.064-.022a6.609,6.609,0,0,1-4.762-1.669,5.955,5.955,0,0,1-1.729-4.476,6.722,6.722,0,0,1,1.611-4.589,5.736,5.736,0,0,1,4.557-1.955,5,5,0,0,1,4.267,1.955,6.3,6.3,0,0,1,1.149,3.836,5.91,5.91,0,0,1-.106,1.229H99.53a3.447,3.447,0,0,0,1.261,2.76,4.518,4.518,0,0,0,2.842.853,10.262,10.262,0,0,0,3.515-.577l.453,1.88A11.578,11.578,0,0,1,103.231,17.379Zm-.54-10.812a2.818,2.818,0,0,0-2.3,1.1,3.9,3.9,0,0,0-.858,2.106h6.033A3.509,3.509,0,0,0,105,7.7,2.59,2.59,0,0,0,102.692,6.567ZM3,17.154H0L5.819.247H9.414l5.846,16.9H12.176l-1.69-4.966H4.613L3,17.153ZM7.483,2.505h0C7.3,3.249,7.01,4.32,6.625,5.689L5.124,10.1H9.977L8.449,5.689C8.288,5.238,8,4.226,7.538,2.505ZM91.374,17.153H88.48L88.507,8.8c0-1.4-.036-2.69-.108-3.838h2.522L91.027,7.3h.08a4.2,4.2,0,0,1,1.447-1.931,3.682,3.682,0,0,1,2.094-.654,4.926,4.926,0,0,1,.724.05V7.345a5.323,5.323,0,0,0-.913-.075A2.816,2.816,0,0,0,92.1,8.35a3.887,3.887,0,0,0-.724,2.407v6.395Z" transform="translate(54.923 24.863)"/><path class="a" d="M69.581,8.871A2.977,2.977,0,0,1,67.334,8,3.078,3.078,0,0,1,66.5,5.791a3.142,3.142,0,0,1,.862-2.279,3.117,3.117,0,0,1,2.327-.887,3.041,3.041,0,0,1,2.266.874,3.05,3.05,0,0,1,.816,2.193,3.174,3.174,0,0,1-.843,2.267A3.133,3.133,0,0,1,69.581,8.871ZM69.635,3.6a1.457,1.457,0,0,0-1.305.717,2.622,2.622,0,0,0-.381,1.445,2.576,2.576,0,0,0,.381,1.421,1.464,1.464,0,0,0,1.292.717A1.443,1.443,0,0,0,70.9,7.169a2.582,2.582,0,0,0,.4-1.433,2.585,2.585,0,0,0-.382-1.421A1.434,1.434,0,0,0,69.635,3.6ZM57.169,8.871a2.49,2.49,0,0,1-1.924-.85,3.187,3.187,0,0,1-.763-2.205,3.344,3.344,0,0,1,.83-2.353,2.643,2.643,0,0,1,1.977-.839,1.971,1.971,0,0,1,1.8.813h.027V0h1.425V7.123c0,.583.017,1.126.05,1.614H59.332l-.067-.962h-.039A2.164,2.164,0,0,1,57.169,8.871Zm.444-5.212a1.5,1.5,0,0,0-1.252.593,2.417,2.417,0,0,0-.456,1.515,2.262,2.262,0,0,0,.437,1.441,1.5,1.5,0,0,0,1.244.591,1.417,1.417,0,0,0,1.124-.492,1.581,1.581,0,0,0,.409-1.1v-1a1.879,1.879,0,0,0-.039-.419,1.513,1.513,0,0,0-.515-.807A1.458,1.458,0,0,0,57.614,3.659Zm-8.4,5.212a2.009,2.009,0,0,1-1.461-.542,1.649,1.649,0,0,1-.5-1.22,1.847,1.847,0,0,1,.982-1.676,5.318,5.318,0,0,1,2.681-.567h.08V4.756c0-.785-.447-1.183-1.329-1.183a3.136,3.136,0,0,0-1.67.443L47.7,3.143a4.352,4.352,0,0,1,2.2-.517A2.212,2.212,0,0,1,52.414,5.1V7.308a8.81,8.81,0,0,0,.092,1.428H51.228l-.106-.69h-.039A2.261,2.261,0,0,1,49.212,8.871Zm1.681-3.118c-1.473,0-2.22.406-2.22,1.208a.868.868,0,0,0,.273.7,1.036,1.036,0,0,0,.7.233,1.506,1.506,0,0,0,.871-.277,1.136,1.136,0,0,0,.493-.709,1.091,1.091,0,0,0,.023-.233V5.754ZM42.428,8.871A2.968,2.968,0,0,1,40.181,8a3.078,3.078,0,0,1-.836-2.205,3.142,3.142,0,0,1,.863-2.279,3.109,3.109,0,0,1,2.324-.887A3.05,3.05,0,0,1,44.8,3.5a3.051,3.051,0,0,1,.817,2.193,3.171,3.171,0,0,1-.844,2.267A3.132,3.132,0,0,1,42.428,8.871ZM42.482,3.6a1.45,1.45,0,0,0-1.305.717,2.641,2.641,0,0,0-.382,1.445,2.6,2.6,0,0,0,.382,1.421,1.463,1.463,0,0,0,1.291.717,1.441,1.441,0,0,0,1.276-.729,2.585,2.585,0,0,0,.394-1.433,2.581,2.581,0,0,0-.381-1.421A1.425,1.425,0,0,0,42.482,3.6ZM12.069,8.871A2.974,2.974,0,0,1,9.822,8a3.078,3.078,0,0,1-.835-2.205,3.142,3.142,0,0,1,.862-2.279,3.115,3.115,0,0,1,2.326-.887,3.049,3.049,0,0,1,2.267.874,3.054,3.054,0,0,1,.816,2.193,3.174,3.174,0,0,1-.843,2.267A3.133,3.133,0,0,1,12.069,8.871ZM12.123,3.6a1.453,1.453,0,0,0-1.305.717,2.622,2.622,0,0,0-.381,1.445,2.576,2.576,0,0,0,.381,1.421A1.464,1.464,0,0,0,12.11,7.9a1.441,1.441,0,0,0,1.276-.729,2.578,2.578,0,0,0,.4-1.433A2.581,2.581,0,0,0,13.4,4.314,1.431,1.431,0,0,0,12.123,3.6Zm76.71,5.262a1.774,1.774,0,0,1-1.316-.48,2.253,2.253,0,0,1-.475-1.615V3.744h-.936v-1h.936v-1.1l1.4-.394v1.49H90v1H88.438v2.91c0,.736.279,1.109.83,1.109A2.675,2.675,0,0,0,89.9,7.7l.037,1.01A3.412,3.412,0,0,1,88.833,8.859Zm13.976-.012a3.237,3.237,0,0,1-2.337-.819,2.92,2.92,0,0,1-.85-2.2,3.3,3.3,0,0,1,.791-2.255,2.816,2.816,0,0,1,2.239-.96,2.448,2.448,0,0,1,2.093.96,3.064,3.064,0,0,1,.571,1.884,3.021,3.021,0,0,1-.053.6h-4.269a1.684,1.684,0,0,0,.618,1.355,2.226,2.226,0,0,0,1.4.419,5.039,5.039,0,0,0,1.727-.283l.222.925A5.721,5.721,0,0,1,102.809,8.847Zm-.26-5.311a1.387,1.387,0,0,0-1.133.543,1.951,1.951,0,0,0-.422,1.035h2.964a1.707,1.707,0,0,0-.276-1.022A1.273,1.273,0,0,0,102.549,3.536ZM2.082,8.809A18.369,18.369,0,0,1,0,8.71V.542A16.52,16.52,0,0,1,2.452.368a5.565,5.565,0,0,1,3.517.949A3.732,3.732,0,0,1,7.3,4.386,4.06,4.06,0,0,1,5.862,7.763,6.046,6.046,0,0,1,2.082,8.809ZM2.57,1.416A6.518,6.518,0,0,0,1.423,1.5V7.713a7.661,7.661,0,0,0,.962.037A3.521,3.521,0,0,0,4.908,6.9,3.282,3.282,0,0,0,5.8,4.423a2.938,2.938,0,0,0-.823-2.231A3.4,3.4,0,0,0,2.57,1.416ZM19.856,8.737H18.536L16.653,2.748h1.462l.725,2.847c.167.643.313,1.29.434,1.922H19.3c.106-.5.284-1.147.528-1.909l.908-2.859H21.9l.871,2.8c.21.677.383,1.341.513,1.972h.04a17.876,17.876,0,0,1,.434-1.972l.777-2.8h1.4l-2,5.987h-1.3l-.83-2.6A18.682,18.682,0,0,1,21.278,4.2h-.026a13.546,13.546,0,0,1-.515,1.935l-.881,2.6Zm77.686,0H96.117V5.331c0-1.069-.434-1.61-1.289-1.61a1.359,1.359,0,0,0-1.358.934,1.574,1.574,0,0,0-.067.478v3.6H91.98V0H93.4V3.609h.027a2.2,2.2,0,0,1,1.924-.985,2.068,2.068,0,0,1,1.464.543,2.628,2.628,0,0,1,.724,2.008v3.56Zm-17.116,0H79V5.306c0-1.052-.435-1.585-1.292-1.585a1.325,1.325,0,0,0-1.027.436,1.484,1.484,0,0,0-.4,1.026V8.734H74.864V4.459c0-.523-.017-1.1-.051-1.714h1.25l.066.936h.04a2.008,2.008,0,0,1,.738-.723A2.542,2.542,0,0,1,78.2,2.621a2.133,2.133,0,0,1,1.489.543,2.547,2.547,0,0,1,.738,1.985V8.735Zm-44.612,0V0h1.422V8.735H35.813Zm-2.5,0H31.886V5.306c0-1.052-.434-1.585-1.29-1.585a1.316,1.316,0,0,0-1.028.436,1.488,1.488,0,0,0-.4,1.026V8.734H27.749V4.459c0-.519-.017-1.079-.052-1.714h1.251l.067.936h.039a2,2,0,0,1,.738-.723,2.509,2.509,0,0,1,1.29-.337,2.135,2.135,0,0,1,1.49.543,2.549,2.549,0,0,1,.738,1.985V8.735Z" transform="translate(56.643 10.324)"/><path class="a" d="M3.66,28.533C.685,24.472-1.63,17.091,1.475,12.067A8.625,8.625,0,0,1,8.653,7.975c2.278-.043,4.392,1.438,5.792,1.438,1.372,0,3.986-1.773,6.681-1.507a8.341,8.341,0,0,1,6.406,3.237c-.167.093-3.823,2.1-3.783,6.228a7.268,7.268,0,0,0,4.685,6.6A16.009,16.009,0,0,1,26,28.609c-1.436,2.007-2.941,3.968-5.33,4-2.32.05-3.1-1.276-5.763-1.276-2.687,0-3.517,1.24-5.743,1.326l-.117,0C6.826,32.664,5.122,30.486,3.66,28.533Zm10.512-21a6.674,6.674,0,0,1,1.836-5.042A8.161,8.161,0,0,1,21.155,0a7,7,0,0,1-1.789,5.236,6.889,6.889,0,0,1-4.853,2.307Q14.342,7.543,14.171,7.531Z" transform="translate(14.104 6.947)"/></svg>