<svg xmlns="http://www.w3.org/2000/svg" width="52.967" height="69.523" viewBox="0 0 52.967 69.523"><defs><style>.a{fill:#f20c90;}.b{fill:#fff;}</style></defs><path class="a" d="M184.544,75.035a26.482,26.482,0,0,0-26.484,26.484c0,22.7,26.484,43.039,26.484,43.039s26.483-20.336,26.483-43.039A26.484,26.484,0,0,0,184.544,75.035Z" transform="translate(-158.06 -75.035)"/><g transform="translate(12.347 16.935)"><path class="b" d="M170.407,102.922V94.671a2.353,2.353,0,0,1,2.413-2.438H175.7c3.8,0,6.849,2.531,6.849,6.563s-3.044,6.564-6.849,6.564H172.82A2.353,2.353,0,0,1,170.407,102.922Zm5.42-1.763a2.364,2.364,0,1,0,0-4.726h-1.114v4.726Z" transform="translate(-170.407 -91.97)"/><path class="b" d="M183.625,103.166V94.014A2.005,2.005,0,0,1,185.7,91.97a2.348,2.348,0,0,1,2.005,1.088l2.487,3.375a20.536,20.536,0,0,1,1.337,1.988V94.408c0-1.425.742-2.438,2.153-2.438s2.153,1.013,2.153,2.438v9.17a2,2,0,0,1-2.061,2.044,2.378,2.378,0,0,1-2.023-1.088l-2.635-3.375c-.39-.506-.836-1.181-1.188-1.744v3.751c0,1.443-.743,2.456-2.153,2.456S183.625,104.609,183.625,103.166Z" transform="translate(-170.407 -91.97)"/><path class="b" d="M177.349,119.4l-1.708-2.1c-.408-.507-.575-.713-.928-1.2v2.062a2.154,2.154,0,1,1-4.306,0v-9.226a2.154,2.154,0,1,1,4.306,0v1.988c.335-.488.52-.731.928-1.256l1.485-1.913a2.229,2.229,0,1,1,3.341,2.925l-2.375,2.813,2.561,2.925C182.676,118.723,179.409,121.948,177.349,119.4Z" transform="translate(-170.407 -91.97)"/><path class="b" d="M183.511,117.917v-9.152a2.005,2.005,0,0,1,2.079-2.044,2.348,2.348,0,0,1,2.005,1.088l2.487,3.376a20.515,20.515,0,0,1,1.336,1.987v-4.013c0-1.425.743-2.438,2.154-2.438s2.153,1.013,2.153,2.438v9.17a2,2,0,0,1-2.061,2.044,2.379,2.379,0,0,1-2.023-1.087l-2.636-3.376c-.389-.506-.835-1.181-1.187-1.744v3.751c0,1.444-.743,2.456-2.154,2.456S183.511,119.361,183.511,117.917Z" transform="translate(-170.407 -91.97)"/><path class="b" d="M199.327,106.747a1.923,1.923,0,0,1,1.688,1.562,4.934,4.934,0,0,1-.264,2,3.959,3.959,0,0,1-.939,1.94,1.565,1.565,0,0,1-1.249.375l-.019,0a1.576,1.576,0,0,1-1.109-.693,3.982,3.982,0,0,1-.4-2.12,4.942,4.942,0,0,1,.262-2,1.91,1.91,0,0,1,2.034-1.062" transform="translate(-170.407 -91.97)"/><path class="b" d="M197.534,119.131a.178.178,0,0,1-.187.181h-.175v.737a.188.188,0,1,1-.376,0v-.737h-.172a.181.181,0,1,1,0-.362h.723A.178.178,0,0,1,197.534,119.131Zm1.434.937a.165.165,0,0,1-.171.173.162.162,0,0,1-.172-.139l-.055-.342-.019-.151-.03.151-.089.323a.189.189,0,0,1-.373,0l-.089-.323-.03-.151-.019.151-.056.342a.161.161,0,0,1-.171.139.165.165,0,0,1-.172-.173.22.22,0,0,1,0-.049l.179-.918a.2.2,0,0,1,.209-.173.2.2,0,0,1,.2.165l.115.444.015.072.015-.072.116-.444a.2.2,0,0,1,.2-.165.2.2,0,0,1,.209.173l.179.918A.291.291,0,0,1,198.968,120.068Z" transform="translate(-170.407 -91.97)"/></g></svg>