<svg xmlns="http://www.w3.org/2000/svg" xmlns:xlink="http://www.w3.org/1999/xlink" width="181.222" height="57.466" viewBox="0 0 181.222 57.466"><defs><style>.a{fill:url(#a);}.b{fill:url(#b);}.c{fill:url(#c);}.d{fill:url(#d);}.e{fill:#fff;}</style><linearGradient id="a" x1="0.5" x2="0.5" y2="1" gradientUnits="objectBoundingBox"><stop offset="0" stop-color="#1e79af"/><stop offset="1" stop-color="#63ffd3"/></linearGradient><linearGradient id="b" x1="0.847" y1="0.144" x2="0.052" y2="0.966" gradientUnits="objectBoundingBox"><stop offset="0" stop-color="#dc4057"/><stop offset="1" stop-color="#9e36bb"/></linearGradient><linearGradient id="c" x1="0.5" x2="0.5" y2="0.978" gradientUnits="objectBoundingBox"><stop offset="0" stop-color="#ff9676"/><stop offset="1" stop-color="#ffd074"/></linearGradient><linearGradient id="d" x1="0.174" x2="1" y2="1" gradientUnits="objectBoundingBox"><stop offset="0" stop-color="#51c6ad"/><stop offset="1" stop-color="#d5ffa1"/></linearGradient></defs><rect width="181.222" height="57.466" rx="7.2"/><g transform="translate(13.835 23.395)"><path class="a" d="M.841,0A1.3,1.3,0,0,0,0,1.375l0,23.2A1.3,1.3,0,0,0,.82,25.938L14.59,12.959.841,0" transform="translate(0 0.05)"/><path class="b" d="M0,12.98a1.706,1.706,0,0,0,1.293-.191l16.8-8.71L13.771,0,0,12.98" transform="translate(0.82 13.009)"/><path class="c" d="M4.329,8.14l5.73-2.969c1.162-.6,1.162-1.587,0-2.19L4.308,0,0,4.06,4.329,8.14" transform="translate(14.59 8.946)"/><path class="d" d="M18.056,8.946,1.27.248A1.729,1.729,0,0,0,0,.05L13.749,13.006l4.307-4.06" transform="translate(0.842 0)"/></g><path class="e" d="M45.994,21.815a3.608,3.608,0,0,1,2.047-3.051,11.91,11.91,0,0,1,5.019-1.146l.05,0-.057-.069a2.452,2.452,0,0,1-.741-1.636,1.954,1.954,0,0,1,.223-.878l.021-.049.01-.024.011-.024-.06.005h-.008l-.04,0c-.25.021-.509.043-.741.043a4.569,4.569,0,0,1-3.259-1.234,3.819,3.819,0,0,1-1.148-2.7,4.414,4.414,0,0,1,1.7-3.352,7.564,7.564,0,0,1,4.751-1.377h5.471l-1.7.9H55.9l.006,0a4.2,4.2,0,0,1,1.876,3.374c0,1.9-1.182,2.78-2.225,3.551l-.046.043a1.686,1.686,0,0,0-.7,1.182,1.348,1.348,0,0,0,.672,1.063l.018.015.959.7c1.146.912,2.228,1.773,2.228,3.505,0,2.349-2.4,4.727-6.983,4.727C47.759,25.394,45.994,23.6,45.994,21.815Zm4.623-3.1c-.566.2-2.285.789-2.285,2.578A2.62,2.62,0,0,0,49.6,23.484a6.141,6.141,0,0,0,3.4.861,4.92,4.92,0,0,0,2.907-.77,2.323,2.323,0,0,0,.995-1.933c0-1.3-.938-1.991-2.89-3.3a4.31,4.31,0,0,0-.612-.027A11.278,11.278,0,0,0,50.617,18.713ZM50.243,7.984a2.738,2.738,0,0,0-.585,1.848c0,1.553.973,4.454,3.318,4.454a2.792,2.792,0,0,0,1.8-.7,2.455,2.455,0,0,0,.668-1.828A6.071,6.071,0,0,0,54.6,8.782a2.987,2.987,0,0,0-2.5-1.627A2.539,2.539,0,0,0,50.243,7.984Zm61.524,14.6.23-1.168a3.327,3.327,0,0,0,1.088.2c.822,0,1.393-.316,1.907-1.434l.98-2.092-5.29-11.836h1.5L116.718,16.5l4.493-10.257h1.519l-6.452,14.32a3.289,3.289,0,0,1-3.169,2.185A5.617,5.617,0,0,1,111.767,22.581ZM83.85,22.462H82.509V6.246h1.342V8.093a5.435,5.435,0,0,1,4.33-2.14,5.3,5.3,0,0,1,4.036,1.662A6.5,6.5,0,0,1,93.755,12.1a6.538,6.538,0,0,1-1.537,4.491,5.283,5.283,0,0,1-4.036,1.683,5.392,5.392,0,0,1-4.33-2.187v6.372h0Zm0-12.968v5.191a5.365,5.365,0,0,0,4.1,2.447,4.018,4.018,0,0,0,3.223-1.448A5.56,5.56,0,0,0,92.311,12.1a5.515,5.515,0,0,0-1.133-3.568A4.03,4.03,0,0,0,87.955,7.1,5.33,5.33,0,0,0,83.851,9.494ZM2.166,15.441A8.458,8.458,0,0,1,0,9.8,8.309,8.309,0,0,1,2.646,3.706a10.534,10.534,0,0,1,7.407-2.68,15.258,15.258,0,0,1,3.811.488,9.861,9.861,0,0,1,3.2,1.406l.086.053L15.08,4.826l-.872.183.622-.933-.006-.005a7.284,7.284,0,0,0-5.32-2.2,6.914,6.914,0,0,0-4.917,1.92,6.936,6.936,0,0,0-1.972,5,8.646,8.646,0,0,0,2.369,5.935,8.8,8.8,0,0,0,6.437,2.625,7.709,7.709,0,0,0,3.157-.583l0-3.783-3.758.191,1.992-1.009h5.274l-.646.586a.543.543,0,0,0-.246.373c-.026.231-.05.909-.05,1.131v2.861l-3.558.768a27.142,27.142,0,0,1-4.109.4A9.565,9.565,0,0,1,2.166,15.441Zm97.931,1.82a3.129,3.129,0,0,1-1.085-2.5,2.941,2.941,0,0,1,1.575-2.559,7.636,7.636,0,0,1,4.085-.983H107.8V9.76a2.4,2.4,0,0,0-.91-1.98,4.081,4.081,0,0,0-2.57-.722,4.261,4.261,0,0,0-2.459.653,1.97,1.97,0,0,0-.932,1.645H99.557l-.028-.063a2.689,2.689,0,0,1,1.3-2.336A5.9,5.9,0,0,1,104.4,5.948a5.825,5.825,0,0,1,3.542.995,3.33,3.33,0,0,1,1.339,2.845v5.79a8.68,8.68,0,0,0,.076,1.209,7.231,7.231,0,0,0,.268,1.163h-1.547c-.084-.382-.154-.741-.207-1.066a6.759,6.759,0,0,1-.065-.915,5.245,5.245,0,0,1-1.945,1.584,5.654,5.654,0,0,1-2.713.627A4.594,4.594,0,0,1,100.1,17.261Zm1.58-4.282A2.18,2.18,0,0,0,100.5,14.8a1.984,1.984,0,0,0,.752,1.611,3.189,3.189,0,0,0,2.063.613,5.308,5.308,0,0,0,2.8-.716,3.7,3.7,0,0,0,1.695-1.834V12.223h-3.146A5.421,5.421,0,0,0,101.678,12.979ZM67.944,17.061a6.376,6.376,0,0,1-2.708-5.274,5.413,5.413,0,0,1,2.017-4.346A6.537,6.537,0,0,1,71.32,6a5.421,5.421,0,0,1,2.734.7,4.176,4.176,0,0,1,1.853,2.456l.007.02-6.241,2.376-2.043.15a6.718,6.718,0,0,0,2.035,3.708A5.109,5.109,0,0,0,73.1,16.739a6.875,6.875,0,0,0,3.054-.788.307.307,0,0,1,.084-.03.01.01,0,0,1,.009,0c0,.005,0,.016-.044.057l-1.269,1.13c-.1.051-.2.107-.3.16-.168.093-.378.208-.578.293a6.425,6.425,0,0,1-2.575.472A5.915,5.915,0,0,1,67.944,17.061Zm-.422-6.749c0,.285.024.588.046.855v.011l0,.032c.012.145.023.282.031.423l4.833-1.977c.51-.175.77-.327.77-.672A2.59,2.59,0,0,0,70.573,6.83,3.168,3.168,0,0,0,67.522,10.312ZM34.615,16.087a5.813,5.813,0,0,1-1.657-4,5.745,5.745,0,0,1,1.924-4.268A7.282,7.282,0,0,1,39.835,6a6.482,6.482,0,0,1,4.637,1.818,5.828,5.828,0,0,1,1.71,4.086,5.936,5.936,0,0,1-1.75,4.146,6.8,6.8,0,0,1-5,1.932A6.484,6.484,0,0,1,34.615,16.087Zm2.14-8.457a3.67,3.67,0,0,0-1.222,3.056,9.346,9.346,0,0,0,1.05,4.2,4,4,0,0,0,3.464,2.348,3.451,3.451,0,0,0,2.71-1.273,4.235,4.235,0,0,0,.8-2.775,9.309,9.309,0,0,0-.968-4.03,3.912,3.912,0,0,0-3.438-2.376A3.856,3.856,0,0,0,36.755,7.63ZM20.489,16.087a5.823,5.823,0,0,1-1.655-4,5.745,5.745,0,0,1,1.924-4.268A7.28,7.28,0,0,1,25.709,6a6.475,6.475,0,0,1,4.634,1.818,5.827,5.827,0,0,1,1.709,4.086A5.937,5.937,0,0,1,30.3,16.054a6.8,6.8,0,0,1-5,1.932A6.482,6.482,0,0,1,20.489,16.087ZM22.631,7.63a3.667,3.667,0,0,0-1.222,3.056,9.31,9.31,0,0,0,1.052,4.2,4,4,0,0,0,3.461,2.348,3.454,3.454,0,0,0,2.708-1.273,4.256,4.256,0,0,0,.8-2.775,9.318,9.318,0,0,0-.97-4.03,3.91,3.91,0,0,0-3.436-2.376A3.8,3.8,0,0,0,22.631,7.63Zm74.3,10.354h-1.34V1.769H96.93V17.983h0ZM59.9,17.662l.106-.13.016-.019.042-.05.005-.006c.465-.567.55-.669.55-1.12v-.559L60.613.9H58.547L60.536,0h3.8c-.814.444-1.067.708-1.175,1.6l-.006,14.19c0,1,.214,1.126,1.057,1.2.2.022.4.039.6.055l.062.005.047,0c.225.018.436.035.648.059l-.981.551Z" transform="translate(45.662 24.96)"/><path class="e" d="M0,4.138A3.9,3.9,0,0,1,1.312,1.125,4.759,4.759,0,0,1,4.491,0,4.117,4.117,0,0,1,7.93,1.656l-1.219.66a2.8,2.8,0,0,0-2.22-1.067A2.825,2.825,0,0,0,1.54,4.138a2.858,2.858,0,0,0,.841,2.07,2.987,2.987,0,0,0,2.11.82,3.21,3.21,0,0,0,2.028-.719V5.073H3.953V3.838H8.007V6.824A4.792,4.792,0,0,1,4.491,8.288,4.188,4.188,0,0,1,0,4.138Zm43.815,0A4.123,4.123,0,0,1,48.192,0a4.122,4.122,0,0,1,4.375,4.138,4.122,4.122,0,0,1-4.375,4.138A4.123,4.123,0,0,1,43.815,4.138Zm1.54,0a2.836,2.836,0,1,0,5.671,0,2.836,2.836,0,1,0-5.671,0ZM60.287,8.132l-4.466-5.72v5.72h-1.5v-8H55.86l4.376,5.541V.132h1.5v8Zm-23.91,0h-1.5V1.368H32.284V.132h6.685V1.368H36.378V8.131h0Zm-5.683,0h-1.5v-8h1.5v8h0Zm-9.311,0h-1.5V1.368H17.291V.132h6.685V1.368H21.384V8.131h0Zm-5.655,0H9.864v-8h5.864V1.368H11.365V3.43h4.274V4.665H11.365V6.9h4.364V8.131h0Z" transform="translate(45.562 9.22)"/></svg>